<svg width="82" height="82" viewBox="0 0 82 82" fill="none" xmlns="http://www.w3.org/2000/svg">
<g clip-path="url(#clip0_1_31)">
<path d="M41.2753 0.36084C18.9893 0.36084 0.860718 18.4912 0.860718 40.7754C0.860718 63.0596 18.9893 81.19 41.2753 81.19C63.5612 81.19 81.6898 63.0596 81.6898 40.7754C81.6898 18.4912 63.5612 0.36084 41.2753 0.36084ZM41.2753 77.8221C20.8476 77.8221 4.22854 61.2031 4.22854 40.7754C4.22854 20.3477 20.8476 3.72867 41.2753 3.72867C61.7029 3.72867 78.322 20.3477 78.322 40.7754C78.322 61.2031 61.7029 77.8221 41.2753 77.8221Z" fill="white"/>
<path d="M57.3423 39.3594L33.7672 24.2039C33.2508 23.8669 32.5832 23.8487 32.0503 24.1414C31.5076 24.4374 31.1721 25.0032 31.1721 25.6199V55.9308C31.1721 56.5474 31.5076 57.1132 32.0503 57.4092C32.3003 57.5458 32.5798 57.6148 32.8561 57.6148C33.1719 57.6148 33.4909 57.5259 33.7672 57.3467L57.3423 42.1912C57.8225 41.8821 58.1152 41.3476 58.1152 40.7753C58.1152 40.203 57.8225 39.6687 57.3423 39.3594ZM34.5399 52.8457V28.7049L53.3166 40.7753L34.5399 52.8457Z" fill="white"/>
</g>
<defs>
<clipPath id="clip0_1_31">
<rect width="80.8291" height="80.8291" fill="white" transform="translate(0.860718 0.36084)"/>
</clipPath>
</defs>
</svg>
