<svg width="81" height="24" viewBox="0 0 81 24" fill="none" xmlns="http://www.w3.org/2000/svg">
<path d="M10.15 1.76031H14.02L23.26 23.0003H17.98L16.15 18.5003H7.89997L6.12997 23.0003H0.969971L10.15 1.76031ZM11.95 7.94031L9.36997 14.5403H14.56L11.95 7.94031Z" fill="#01996D"/>
<path d="M24.8863 0.320312H29.3863V23.0003H24.8863V0.320312Z" fill="#01996D"/>
<path d="M32.6793 8.42031H37.1793V23.0003H32.6793V8.42031ZM32.3193 3.83031C32.3193 3.11031 32.5693 2.50031 33.0693 2.00031C33.5893 1.48031 34.2093 1.22031 34.9293 1.22031C35.6493 1.22031 36.2593 1.48031 36.7593 2.00031C37.2793 2.50031 37.5393 3.11031 37.5393 3.83031C37.5393 4.55031 37.2793 5.17031 36.7593 5.69031C36.2593 6.19031 35.6493 6.44031 34.9293 6.44031C34.2093 6.44031 33.5893 6.19031 33.0693 5.69031C32.5693 5.17031 32.3193 4.55031 32.3193 3.83031Z" fill="#01996D"/>
<path d="M38.8822 8.42031H43.7422L47.4322 18.3203H47.4922L50.9122 8.42031H55.4422L49.6822 23.0003H44.9122L38.8822 8.42031Z" fill="#01996D"/>
<path d="M57.1422 8.42031H61.6422V23.0003H57.1422V8.42031ZM56.7822 3.83031C56.7822 3.11031 57.0322 2.50031 57.5322 2.00031C58.0522 1.48031 58.6722 1.22031 59.3922 1.22031C60.1122 1.22031 60.7222 1.48031 61.2222 2.00031C61.7422 2.50031 62.0022 3.11031 62.0022 3.83031C62.0022 4.55031 61.7422 5.17031 61.2222 5.69031C60.7222 6.19031 60.1122 6.44031 59.3922 6.44031C58.6722 6.44031 58.0522 6.19031 57.5322 5.69031C57.0322 5.17031 56.7822 4.55031 56.7822 3.83031Z" fill="#01996D"/>
<path d="M64.3351 15.7103C64.3351 14.5503 64.5451 13.5003 64.9651 12.5603C65.3851 11.6203 65.9551 10.8203 66.6751 10.1603C67.4151 9.48031 68.2751 8.96031 69.2551 8.60031C70.2551 8.24031 71.3151 8.06031 72.4351 8.06031C73.5551 8.06031 74.6051 8.24031 75.5851 8.60031C76.5851 8.96031 77.4451 9.48031 78.1651 10.1603C78.9051 10.8203 79.4851 11.6203 79.9051 12.5603C80.3251 13.5003 80.5351 14.5503 80.5351 15.7103C80.5351 16.8703 80.3251 17.9203 79.9051 18.8603C79.4851 19.8003 78.9051 20.6103 78.1651 21.2903C77.4451 21.9503 76.5851 22.4603 75.5851 22.8203C74.6051 23.1803 73.5551 23.3603 72.4351 23.3603C71.3151 23.3603 70.2551 23.1803 69.2551 22.8203C68.2751 22.4603 67.4151 21.9503 66.6751 21.2903C65.9551 20.6103 65.3851 19.8003 64.9651 18.8603C64.5451 17.9203 64.3351 16.8703 64.3351 15.7103ZM68.8351 15.7103C68.8351 16.8103 69.1451 17.7003 69.7651 18.3803C70.4051 19.0603 71.2951 19.4003 72.4351 19.4003C73.5751 19.4003 74.4551 19.0603 75.0751 18.3803C75.7151 17.7003 76.0351 16.8103 76.0351 15.7103C76.0351 14.6103 75.7151 13.7203 75.0751 13.0403C74.4551 12.3603 73.5751 12.0203 72.4351 12.0203C71.2951 12.0203 70.4051 12.3603 69.7651 13.0403C69.1451 13.7203 68.8351 14.6103 68.8351 15.7103Z" fill="#01996D"/>
</svg>
