<svg width="108" height="32" viewBox="0 0 108 32" fill="none" xmlns="http://www.w3.org/2000/svg">
<path d="M13.2 2.67977H18.36L30.68 30.9998H23.64L21.2 24.9998H10.2L7.83999 30.9998H0.959991L13.2 2.67977ZM15.6 10.9198L12.16 19.7198H19.08L15.6 10.9198Z" fill="white"/>
<path d="M32.8484 0.759766H38.8484V30.9998H32.8484V0.759766Z" fill="white"/>
<path d="M43.2391 11.5598H49.2391V30.9998H43.2391V11.5598ZM42.7591 5.43976C42.7591 4.47977 43.0924 3.66643 43.7591 2.99977C44.4524 2.30643 45.2791 1.95977 46.2391 1.95977C47.1991 1.95977 48.0124 2.30643 48.6791 2.99977C49.3724 3.66643 49.7191 4.47977 49.7191 5.43976C49.7191 6.39977 49.3724 7.22643 48.6791 7.91977C48.0124 8.58643 47.1991 8.91977 46.2391 8.91977C45.2791 8.91977 44.4524 8.58643 43.7591 7.91977C43.0924 7.22643 42.7591 6.39977 42.7591 5.43976Z" fill="white"/>
<path d="M51.5097 11.5598H57.9897L62.9097 24.7598H62.9897L67.5497 11.5598H73.5897L65.9097 30.9998H59.5497L51.5097 11.5598Z" fill="white"/>
<path d="M75.8562 11.5598H81.8562V30.9998H75.8562V11.5598ZM75.3762 5.43976C75.3762 4.47977 75.7096 3.66643 76.3762 2.99977C77.0696 2.30643 77.8962 1.95977 78.8562 1.95977C79.8162 1.95977 80.6296 2.30643 81.2962 2.99977C81.9896 3.66643 82.3362 4.47977 82.3362 5.43976C82.3362 6.39977 81.9896 7.22643 81.2962 7.91977C80.6296 8.58643 79.8162 8.91977 78.8562 8.91977C77.8962 8.91977 77.0696 8.58643 76.3762 7.91977C75.7096 7.22643 75.3762 6.39977 75.3762 5.43976Z" fill="white"/>
<path d="M85.4469 21.2798C85.4469 19.7331 85.7269 18.3331 86.2869 17.0798C86.8469 15.8264 87.6069 14.7598 88.5669 13.8798C89.5535 12.9731 90.7002 12.2798 92.0069 11.7998C93.3402 11.3198 94.7535 11.0798 96.2469 11.0798C97.7402 11.0798 99.1402 11.3198 100.447 11.7998C101.78 12.2798 102.927 12.9731 103.887 13.8798C104.874 14.7598 105.647 15.8264 106.207 17.0798C106.767 18.3331 107.047 19.7331 107.047 21.2798C107.047 22.8264 106.767 24.2264 106.207 25.4798C105.647 26.7331 104.874 27.8131 103.887 28.7198C102.927 29.5998 101.78 30.2798 100.447 30.7598C99.1402 31.2398 97.7402 31.4798 96.2469 31.4798C94.7535 31.4798 93.3402 31.2398 92.0069 30.7598C90.7002 30.2798 89.5535 29.5998 88.5669 28.7198C87.6069 27.8131 86.8469 26.7331 86.2869 25.4798C85.7269 24.2264 85.4469 22.8264 85.4469 21.2798ZM91.4469 21.2798C91.4469 22.7464 91.8602 23.9331 92.6869 24.8398C93.5402 25.7464 94.7269 26.1998 96.2469 26.1998C97.7669 26.1998 98.9402 25.7464 99.7669 24.8398C100.62 23.9331 101.047 22.7464 101.047 21.2798C101.047 19.8131 100.62 18.6264 99.7669 17.7198C98.9402 16.8131 97.7669 16.3598 96.2469 16.3598C94.7269 16.3598 93.5402 16.8131 92.6869 17.7198C91.8602 18.6264 91.4469 19.8131 91.4469 21.2798Z" fill="white"/>
</svg>
