<?xml version="1.0" encoding="utf-8"?><svg xmlns="http://www.w3.org/2000/svg" xmlns:xlink="http://www.w3.org/1999/xlink"><symbol fill="none" viewBox="0 0 108 32" id="icons--logo-bottom" xmlns="http://www.w3.org/2000/svg">
    <path d="M13.2 2.68h5.16L30.68 31h-7.04l-2.44-6h-11l-2.36 6H.96L13.2 2.68Zm2.4 8.24-3.44 8.8h6.92l-3.48-8.8ZM32.848.76h6V31h-6V.76ZM43.24 11.56h6V31h-6V11.56Zm-.48-6.12c0-.96.332-1.774 1-2.44.692-.694 1.52-1.04 2.48-1.04s1.772.346 2.44 1.04a3.256 3.256 0 0 1 1.04 2.44c0 .96-.348 1.786-1.04 2.48-.668.666-1.48 1-2.44 1s-1.788-.334-2.48-1c-.668-.694-1-1.52-1-2.48ZM51.51 11.56h6.48l4.92 13.2h.08l4.56-13.2h6.04L65.91 31h-6.36l-8.04-19.44ZM75.856 11.56h6V31h-6V11.56Zm-.48-6.12c0-.96.334-1.774 1-2.44.694-.694 1.52-1.04 2.48-1.04s1.774.346 2.44 1.04a3.256 3.256 0 0 1 1.04 2.44c0 .96-.346 1.786-1.04 2.48-.666.666-1.48 1-2.44 1s-1.786-.334-2.48-1c-.666-.694-1-1.52-1-2.48ZM85.447 21.28c0-1.547.28-2.947.84-4.2a9.587 9.587 0 0 1 2.28-3.2c.987-.907 2.133-1.6 3.44-2.08 1.333-.48 2.746-.72 4.24-.72 1.493 0 2.893.24 4.2.72 1.333.48 2.48 1.173 3.44 2.08a9.324 9.324 0 0 1 2.32 3.2c.56 1.253.84 2.653.84 4.2 0 1.546-.28 2.946-.84 4.2a9.745 9.745 0 0 1-2.32 3.24c-.96.88-2.107 1.56-3.44 2.04-1.307.48-2.707.72-4.2.72-1.493 0-2.907-.24-4.24-.72a10.603 10.603 0 0 1-3.44-2.04 10.033 10.033 0 0 1-2.28-3.24c-.56-1.254-.84-2.654-.84-4.2Zm6 0c0 1.466.413 2.653 1.24 3.56.853.906 2.04 1.36 3.56 1.36s2.693-.454 3.52-1.36c.853-.907 1.28-2.094 1.28-3.56 0-1.467-.427-2.654-1.28-3.56-.827-.907-2-1.36-3.52-1.36s-2.707.453-3.56 1.36c-.827.906-1.24 2.093-1.24 3.56Z" fill="#fff"/>
</symbol><symbol fill="none" viewBox="0 0 81 24" id="icons--logo-top" xmlns="http://www.w3.org/2000/svg">
    <path d="M10.15 1.76h3.87L23.26 23h-5.28l-1.83-4.5H7.9L6.13 23H.97l9.18-21.24Zm1.8 6.18-2.58 6.6h5.19l-2.61-6.6ZM24.886.32h4.5V23h-4.5V.32ZM32.68 8.42h4.5V23h-4.5V8.42Zm-.36-4.59c0-.72.25-1.33.75-1.83.52-.52 1.14-.78 1.86-.78.72 0 1.33.26 1.83.78.52.5.78 1.11.78 1.83s-.26 1.34-.78 1.86c-.5.5-1.11.75-1.83.75s-1.34-.25-1.86-.75a2.59 2.59 0 0 1-.75-1.86ZM38.882 8.42h4.86l3.69 9.9h.06l3.42-9.9h4.53L49.682 23h-4.77l-6.03-14.58ZM57.142 8.42h4.5V23h-4.5V8.42Zm-.36-4.59c0-.72.25-1.33.75-1.83.52-.52 1.14-.78 1.86-.78.72 0 1.33.26 1.83.78.52.5.78 1.11.78 1.83s-.26 1.34-.78 1.86c-.5.5-1.11.75-1.83.75s-1.34-.25-1.86-.75a2.59 2.59 0 0 1-.75-1.86ZM64.335 15.71c0-1.16.21-2.21.63-3.15.42-.94.99-1.74 1.71-2.4.74-.68 1.6-1.2 2.58-1.56 1-.36 2.06-.54 3.18-.54s2.17.18 3.15.54c1 .36 1.86.88 2.58 1.56.74.66 1.32 1.46 1.74 2.4.42.94.63 1.99.63 3.15s-.21 2.21-.63 3.15c-.42.94-1 1.75-1.74 2.43-.72.66-1.58 1.17-2.58 1.53-.98.36-2.03.54-3.15.54s-2.18-.18-3.18-.54c-.98-.36-1.84-.87-2.58-1.53a7.525 7.525 0 0 1-1.71-2.43c-.42-.94-.63-1.99-.63-3.15Zm4.5 0c0 1.1.31 1.99.93 2.67.64.68 1.53 1.02 2.67 1.02s2.02-.34 2.64-1.02c.64-.68.96-1.57.96-2.67 0-1.1-.32-1.99-.96-2.67-.62-.68-1.5-1.02-2.64-1.02-1.14 0-2.03.34-2.67 1.02-.62.68-.93 1.57-.93 2.67Z" fill="#01996D"/>
</symbol></svg>